<svg xmlns="http://www.w3.org/2000/svg" width="1024" height="1024" viewBox="0 0 1024 1024" role="img" aria-labelledby="title desc">
  <title id="title">JSolanoDev Avatar</title>
  <desc id="desc">Professional JS monogram avatar with AnimeTV-inspired colors.</desc>
  <defs>
    <linearGradient id="bg" x1="0" y1="0" x2="1" y2="1">
      <stop offset="0" stop-color="#070914"/>
      <stop offset="0.52" stop-color="#151c35"/>
      <stop offset="1" stop-color="#050710"/>
    </linearGradient>
    <linearGradient id="ring" x1="0" y1="0" x2="1" y2="1">
      <stop offset="0" stop-color="#00d2ff"/>
      <stop offset="0.5" stop-color="#8a5cff"/>
      <stop offset="1" stop-color="#f2bb46"/>
    </linearGradient>
    <radialGradient id="glow" cx="50%" cy="38%" r="58%">
      <stop offset="0" stop-color="#00d2ff" stop-opacity="0.34"/>
      <stop offset="1" stop-color="#00d2ff" stop-opacity="0"/>
    </radialGradient>
    <filter id="soft">
      <feDropShadow dx="0" dy="28" stdDeviation="28" flood-color="#000000" flood-opacity="0.45"/>
    </filter>
  </defs>
  <rect width="1024" height="1024" rx="220" fill="url(#bg)"/>
  <rect width="1024" height="1024" rx="220" fill="url(#glow)"/>
  <circle cx="512" cy="512" r="368" fill="none" stroke="url(#ring)" stroke-width="34" opacity="0.94"/>
  <circle cx="512" cy="512" r="303" fill="#101528" stroke="#ffffff" stroke-opacity="0.08" stroke-width="4" filter="url(#soft)"/>
  <path d="M309 352 H476 V575 C476 680 411 732 312 732 C260 732 217 716 184 691 L227 608 C250 626 275 637 304 637 C344 637 366 616 366 569 V444 H309 Z" fill="#f7f7ff"/>
  <path d="M550 686 L595 603 C634 630 676 644 719 644 C756 644 779 631 779 608 C779 584 755 575 706 564 C625 546 565 517 565 439 C565 360 631 318 723 318 C781 318 837 334 882 365 L837 447 C802 425 761 412 722 412 C691 412 672 424 672 444 C672 466 696 475 742 486 C831 506 888 538 888 612 C888 697 816 738 717 738 C652 738 591 719 550 686 Z" fill="#f7f7ff"/>
  <path d="M225 808 H799" stroke="url(#ring)" stroke-width="24" stroke-linecap="round"/>
  <circle cx="792" cy="232" r="34" fill="#f2bb46"/>
  <circle cx="234" cy="790" r="26" fill="#ff5ec4"/>
</svg>
